<?xml version="1.0" standalone="no"?>
<!DOCTYPE svg PUBLIC "-//W3C//DTD SVG 20010904//EN"
 "http://www.w3.org/TR/2001/REC-SVG-20010904/DTD/svg10.dtd">
<svg version="1.0" xmlns="http://www.w3.org/2000/svg"
 width="1024.000000pt" height="1024.000000pt" viewBox="0 0 1024.000000 1024.000000"
 preserveAspectRatio="xMidYMid meet">
<metadata>
Created by potrace 1.11, written by Peter Selinger 2001-2013
</metadata>
<g transform="translate(0.000000,1024.000000) scale(0.100000,-0.100000)"
fill="#000000" stroke="none">
<path d="M4937 9024 c-1 -1 -51 -5 -110 -8 -60 -4 -127 -9 -150 -12 -237 -29
-457 -72 -637 -124 -86 -25 -339 -108 -347 -115 -6 -4 79 -251 107 -310 5 -11
27 -61 49 -112 177 -407 470 -834 800 -1164 338 -337 640 -523 966 -595 65
-14 230 -13 293 1 206 48 366 208 432 432 37 127 49 238 45 418 -4 199 -6 219
-40 385 -39 192 -91 365 -173 570 -48 122 -176 382 -240 490 l-38 65 -90 17
c-49 9 -125 21 -169 27 -44 6 -95 13 -113 15 -87 13 -574 30 -585 20z"/>
<path d="M5991 8878 c203 -344 377 -826 429 -1189 62 -429 -12 -789 -203 -981
-78 -79 -87 -86 -167 -125 -94 -47 -169 -61 -302 -58 -225 5 -444 86 -713 264
-193 127 -477 386 -629 575 -103 128 -126 158 -176 226 -74 101 -163 236 -227
345 -72 123 -213 410 -258 525 -21 52 -43 109 -50 125 -7 17 -21 58 -31 93
-10 34 -22 62 -27 62 -27 0 -327 -145 -469 -227 -111 -63 -267 -164 -358 -231
-85 -62 -253 -196 -285 -227 -12 -11 -44 -41 -71 -66 l-50 -47 -61 33 c-224
121 -500 126 -718 12 -33 -18 -64 -35 -70 -39 -115 -87 -154 -127 -220 -225
-99 -148 -144 -349 -116 -523 16 -98 17 -102 47 -176 46 -118 153 -258 241
-319 17 -12 20 -20 13 -33 -19 -32 -88 -218 -129 -345 -69 -213 -136 -507
-156 -692 -3 -27 -8 -66 -10 -85 -25 -200 -25 -715 -1 -847 2 -10 7 -47 11
-83 4 -36 9 -74 11 -85 2 -11 11 -58 19 -105 24 -134 24 -135 60 -274 39 -154
96 -329 155 -476 46 -116 195 -425 232 -480 13 -19 34 -55 47 -80 46 -85 175
-270 281 -405 154 -197 393 -441 585 -598 153 -125 390 -288 552 -381 82 -46
302 -156 378 -188 158 -67 352 -136 490 -174 120 -33 321 -78 390 -88 22 -3
49 -7 60 -10 11 -2 49 -7 85 -11 36 -3 72 -8 80 -10 73 -19 590 -27 765 -12
119 10 254 27 325 42 8 2 40 7 70 11 30 4 57 9 60 9 3 1 23 6 45 12 22 6 83
21 135 33 106 25 373 111 495 160 121 49 388 179 500 245 90 52 347 222 392
259 10 8 45 36 78 63 536 426 957 995 1204 1628 146 375 226 727 260 1145 8
105 6 530 -3 605 -3 22 -8 65 -11 95 -13 130 -35 268 -66 408 -12 52 -22 99
-23 105 -19 97 -106 362 -171 525 l-37 93 66 60 c174 160 258 360 250 596 -3
117 -16 174 -60 274 -182 414 -678 582 -1071 362 l-62 -34 -53 48 c-115 105
-134 123 -173 153 -22 17 -49 38 -60 47 -11 9 -65 50 -120 90 -55 40 -105 76
-111 80 -5 5 -19 13 -30 20 -10 7 -62 39 -114 71 -197 123 -402 226 -615 309
-104 40 -251 92 -279 98 -10 3 -33 9 -50 14 -36 12 -224 61 -231 61 -2 0 9
-24 26 -52z m-3827 -1041 c84 -31 96 -41 74 -63 -14 -15 -19 -15 -49 0 -97 45
-238 58 -338 31 -64 -17 -146 -56 -183 -87 -14 -13 -35 -30 -45 -39 -65 -56
-118 -145 -143 -245 -44 -168 -2 -338 114 -469 37 -41 42 -51 33 -67 -7 -10
-15 -18 -19 -18 -18 0 -114 131 -144 195 -42 92 -54 152 -50 255 8 177 84 320
229 430 106 80 201 108 347 105 85 -1 118 -7 174 -28z m6175 23 c161 -29 319
-148 401 -301 51 -97 69 -247 44 -366 -16 -76 -64 -183 -103 -227 -77 -87 -87
-96 -99 -84 -19 19 -14 34 23 73 149 159 183 385 87 583 -38 80 -150 191 -233
230 -81 39 -103 44 -210 48 -91 3 -161 -10 -229 -44 -38 -19 -40 -19 -56 -1
-20 23 -22 21 41 49 104 47 219 61 334 40z m-1015 -1015 c185 -39 411 -151
543 -269 40 -35 41 -46 8 -46 -14 0 -25 4 -25 8 0 15 -216 151 -301 190 -99
45 -207 78 -304 91 -84 11 -258 7 -340 -9 -158 -31 -345 -115 -499 -226 -85
-61 -106 -69 -106 -40 0 17 154 127 247 176 122 66 283 120 398 136 28 3 52 8
54 10 10 9 256 -6 325 -21z m-4054 4 c164 -25 297 -77 443 -172 82 -53 167
-124 167 -138 0 -21 -33 -14 -67 15 -107 92 -276 186 -406 225 -99 30 -147 36
-297 36 -241 -1 -402 -54 -695 -229 -60 -36 -114 -65 -120 -63 -13 5 -13 42 0
42 6 0 60 30 120 67 196 118 336 177 485 205 14 2 43 8 65 12 54 11 237 11
305 0z m-22 -613 c378 -86 638 -415 633 -801 -2 -211 -81 -396 -235 -551 -161
-162 -332 -234 -566 -239 -302 -6 -609 187 -730 460 -61 138 -71 178 -75 320
-5 149 24 279 92 405 120 223 356 387 598 416 28 4 51 7 52 9 9 7 176 -6 231
-19z m4022 -6 c468 -115 729 -612 560 -1066 -117 -314 -433 -528 -768 -519
-215 6 -403 86 -553 235 -102 102 -190 255 -213 375 -4 17 -9 41 -12 55 -3 14
-7 66 -9 115 -14 355 208 672 547 786 49 17 120 33 156 36 37 3 68 7 70 8 9 8
159 -9 222 -25z m-1935 -1882 c11 -3 43 -9 70 -13 79 -11 213 -49 298 -85 199
-83 316 -208 322 -345 4 -90 -50 -183 -152 -263 -88 -69 -335 -165 -456 -177
-22 -3 -47 -7 -56 -9 -9 -3 -47 -8 -86 -11 -38 -4 -71 -7 -72 -9 -5 -5 34
-111 62 -166 110 -218 332 -398 537 -435 12 -3 46 -9 73 -14 52 -11 323 -8
385 3 205 38 336 75 524 148 l137 54 -30 41 c-67 92 -127 247 -138 356 -5 49
-3 57 11 57 19 0 23 -8 30 -65 19 -143 93 -295 198 -405 122 -129 331 -214
546 -221 44 -2 52 -5 52 -21 0 -17 -7 -19 -66 -17 -212 8 -439 99 -553 222
-17 19 -28 23 -40 17 -47 -27 -256 -104 -376 -139 -272 -80 -530 -101 -733
-59 -52 10 -110 25 -128 33 -33 13 -33 13 -43 -18 -10 -31 -89 -337 -152 -592
-17 -66 -36 -124 -43 -130 -17 -13 -703 -12 -715 1 -7 7 -61 208 -96 354 -2 8
-20 78 -40 155 -19 77 -37 149 -39 160 -2 11 -7 28 -10 38 -3 9 -8 24 -11 32
-4 12 -9 12 -41 -1 -88 -37 -203 -52 -374 -49 -167 3 -180 4 -305 31 -38 8
-79 16 -90 19 -65 13 -290 90 -394 134 -40 17 -78 31 -83 31 -5 0 -35 -23 -66
-51 -111 -98 -294 -169 -486 -187 -71 -7 -89 -6 -93 6 -9 23 9 30 77 33 36 1
83 7 105 12 22 5 50 11 63 13 69 13 218 79 248 109 9 8 19 15 23 15 13 0 119
108 151 156 49 71 96 181 115 269 23 112 25 115 41 115 51 0 -44 -307 -130
-419 l-26 -35 82 -34 c70 -29 289 -105 338 -118 190 -49 305 -63 480 -60 119
3 173 8 235 25 193 52 381 195 484 368 40 68 107 220 100 227 -2 3 -31 7 -64
11 -229 23 -431 84 -565 167 -145 91 -216 225 -188 351 41 176 341 344 688
383 30 4 57 8 59 10 6 5 383 -3 406 -8z"/>
<path d="M2950 6194 c-236 -40 -450 -199 -549 -409 -13 -27 -28 -58 -33 -68
-25 -50 -46 -190 -43 -284 5 -144 17 -195 71 -310 34 -71 128 -199 175 -238
45 -37 144 -102 179 -118 219 -101 472 -96 676 13 361 194 505 620 334 987
-145 310 -474 483 -810 427z m287 -234 c91 -29 143 -62 216 -134 102 -101 157
-228 158 -367 1 -154 -51 -280 -161 -389 -102 -101 -211 -150 -350 -155 -197
-7 -376 89 -484 258 -69 110 -92 283 -56 416 82 293 392 463 677 371z"/>
<path d="M2997 5905 c-31 -30 -37 -43 -37 -76 0 -23 7 -53 16 -69 17 -28 67
-57 94 -55 8 1 25 3 37 3 28 2 79 54 86 88 7 38 -8 83 -38 114 -20 20 -36 27
-73 29 -43 2 -52 -2 -85 -34z"/>
<path d="M6980 6199 c-75 -12 -92 -16 -160 -40 -62 -21 -162 -77 -211 -116
-175 -142 -279 -350 -284 -570 -2 -83 14 -213 31 -253 4 -8 8 -20 10 -27 1 -7
18 -44 38 -83 161 -323 543 -489 886 -386 250 76 454 283 516 527 24 94 25 99
25 194 1 415 -321 747 -736 759 -38 1 -90 -1 -115 -5z m260 -239 c90 -30 145
-65 217 -136 127 -127 178 -289 146 -472 -40 -235 -253 -424 -493 -437 -299
-16 -555 214 -565 508 -3 91 11 176 42 243 44 99 155 215 251 263 117 59 281
72 402 31z"/>
<path d="M7014 5921 c-62 -38 -70 -129 -16 -184 51 -51 148 -36 182 28 27 51
13 118 -33 155 -29 24 -96 24 -133 1z"/>
<path d="M4928 4305 c-2 -2 -28 -6 -58 -10 -136 -16 -246 -45 -360 -94 -448
-193 -352 -532 188 -665 53 -14 122 -28 152 -31 30 -4 64 -9 75 -11 25 -5 320
-5 355 0 158 23 166 25 260 51 279 80 433 205 434 355 2 180 -250 338 -626
394 -79 12 -410 20 -420 11z"/>
<path d="M5051 3432 c-6 -2 -11 -9 -11 -16 0 -19 -65 -167 -100 -226 -73 -124
-188 -239 -305 -305 -27 -16 -52 -30 -53 -31 -2 -1 1 -17 7 -36 10 -29 24 -83
86 -338 43 -175 89 -346 96 -354 5 -5 150 -10 334 -10 290 -1 326 1 330 15 5
15 102 396 110 429 1 8 8 35 15 60 7 25 14 52 16 60 2 8 12 51 23 95 11 43 19
80 18 80 -1 1 -27 16 -57 33 -159 89 -294 254 -376 461 l-36 90 -43 -2 c-23
-1 -48 -3 -54 -5z"/>
</g>
</svg>
